<svg id="visual" viewBox="0 0 1920 100" xl="100%" xmlns="http://www.w3.org/2000/svg" xmlns:xlink="http://www.w3.org/1999/xlink" version="1.1"><rect x="0" y="0" width="1920" height="100" fill="#fff"></rect><path d="M0 95L64 87.7C128 80.3 256 65.7 384 58.2C512 50.7 640 50.3 768 54C896 57.7 1024 65.3 1152 73.2C1280 81 1408 89 1536 86.8C1664 84.7 1792 72.3 1856 66.2L1920 60L1920 101L1856 101C1792 101 1664 101 1536 101C1408 101 1280 101 1152 101C1024 101 896 101 768 101C640 101 512 101 384 101C256 101 128 101 64 101L0 101Z" fill="#7510f7" stroke-linecap="round" stroke-linejoin="miter"></path></svg>