<svg id="visual" viewBox="0 0 900 100" x1="100%" xmlns="http://www.w3.org/2000/svg" xmlns:xlink="http://www.w3.org/1999/xlink" version="1.1"><rect x="0" y="0" width="900" height="100" fill="#fff"></rect><path d="M0 71L30 64C60 57 120 43 180 38.8C240 34.7 300 40.3 360 51C420 61.7 480 77.3 540 83C600 88.7 660 84.3 720 72C780 59.7 840 39.3 870 29.2L900 19L900 101L870 101C840 101 780 101 720 101C660 101 600 101 540 101C480 101 420 101 360 101C300 101 240 101 180 101C120 101 60 101 30 101L0 101Z" fill="#7510f7" stroke-linecap="round" stroke-linejoin="miter"></path></svg>